<?xml version="1.0" encoding="UTF-8" standalone="no"?><!-- Generator: Gravit.io --><svg xmlns="http://www.w3.org/2000/svg" xmlns:xlink="http://www.w3.org/1999/xlink" style="isolation:isolate" viewBox="0 0 360 360" width="360pt" height="360pt"><defs><clipPath id="_clipPath_Dnbxam5newqfVSI8VuxwSmxwovjxYMPw"><rect width="360" height="360"/></clipPath></defs><g clip-path="url(#_clipPath_Dnbxam5newqfVSI8VuxwSmxwovjxYMPw)"><rect width="360" height="360" style="fill:rgb(0,0,0)" fill-opacity="0"/><g><path d="M 180 20 L 180 20 C 268.306 20 340 91.694 340 180 L 340 180 C 340 268.306 268.306 340 180 340 L 180 340 C 91.694 340 20 268.306 20 180 L 20 180 C 20 91.694 91.694 20 180 20 Z" style="stroke:none;fill:#0984E3;stroke-miterlimit:10;"/><g><g><path d=" M 138.635 221.405 C 114.625 225.244 111.228 246.716 110.885 255.868 C 110.8 258.127 112.614 260 114.875 260 L 138.635 260 L 138.635 221.405 Z " fill="rgb(232,232,232)"/><g opacity="0.08"><path d=" M 135.026 222.156 C 125.108 231.864 118.747 245.189 118.08 260 L 138.634 260 L 138.634 221.405 C 137.374 221.607 136.176 221.861 135.026 222.156 Z " fill="rgb(0,0,0)"/></g><path d=" M 221.365 221.405 C 245.375 225.244 248.772 246.716 249.115 255.868 C 249.2 258.127 247.386 260 245.125 260 L 221.365 260 L 221.365 221.405 Z " fill="rgb(232,232,232)"/><g opacity="0.08"><path d=" M 224.974 222.156 C 234.892 231.864 241.253 245.19 241.92 260 L 221.365 260 L 221.365 221.405 C 222.626 221.607 223.824 221.861 224.974 222.156 Z " fill="rgb(0,0,0)"/></g><path d=" M 236.578 260 C 236.578 228.753 211.247 203.422 180 203.422 C 148.753 203.422 123.422 228.753 123.422 260 L 236.578 260 Z " fill="rgb(232,232,232)"/><path d=" M 201.276 259.977 C 201.276 248.226 191.75 238.701 180 238.701 C 168.25 238.701 158.724 248.226 158.724 259.977 L 201.276 259.977 Z " fill="rgb(77,177,224)"/><path d=" M 191.23 259.977 C 191.23 253.774 186.202 248.747 180 248.747 C 173.798 248.747 168.77 253.774 168.77 259.977 L 191.23 259.977 Z " fill="rgb(255,255,255)"/><g opacity="0.1"><path d=" M 180 203.422 C 165.555 203.422 152.376 208.838 142.378 217.747 C 151.841 227.68 165.197 233.871 180 233.871 L 180 233.871 C 194.802 233.871 208.159 227.68 217.622 217.747 C 207.624 208.838 194.445 203.422 180 203.422 Z " fill="rgb(0,0,0)"/></g></g><g><circle vector-effect="non-scaling-stroke" cx="125.53404518629156" cy="162.67655031544882" r="13.099159009976013" fill="rgb(246,205,181)"/><circle vector-effect="non-scaling-stroke" cx="234.46595847064953" cy="162.67655031544882" r="13.099159009976006" fill="rgb(246,205,181)"/><g opacity="0.15"><circle vector-effect="non-scaling-stroke" cx="125.53404518629156" cy="162.67655031544882" r="13.099159009976013" fill="rgb(236,128,135)"/></g><g opacity="0.1"><path d=" M 125.536 149.579 C 124.04 149.579 122.604 149.833 121.265 150.295 C 121.143 151.783 121.078 153.286 121.078 154.806 L 121.078 171.656 C 121.078 172.791 121.117 173.916 121.185 175.034 C 122.547 175.514 124.01 175.777 125.536 175.777 C 132.77 175.777 138.634 169.913 138.634 162.679 C 138.635 155.444 132.77 149.579 125.536 149.579 Z " fill="rgb(0,0,0)"/></g><g opacity="0.15"><circle vector-effect="non-scaling-stroke" cx="234.46595847064953" cy="162.67655031544882" r="13.099159009976006" fill="rgb(236,128,135)"/></g><g opacity="0.1"><path d=" M 234.464 149.579 C 235.96 149.579 237.396 149.833 238.735 150.295 C 238.857 151.783 238.922 153.286 238.922 154.806 L 238.922 171.656 C 238.922 172.791 238.883 173.916 238.815 175.034 C 237.453 175.514 235.99 175.777 234.464 175.777 C 227.23 175.777 221.366 169.913 221.366 162.679 C 221.366 155.444 227.23 149.579 234.464 149.579 Z " fill="rgb(0,0,0)"/></g><path d=" M 180 100.341 L 180 100.341 C 149.92 100.341 125.536 124.726 125.536 154.806 L 125.536 171.656 C 125.536 201.736 149.92 226.12 180 226.12 L 180 226.12 C 210.08 226.12 234.464 201.736 234.464 171.656 L 234.464 154.806 C 234.464 124.726 210.08 100.341 180 100.341 Z " fill="rgb(246,205,181)"/></g><g><path d=" M 125.536 141.876 L 125.536 168.838 L 125.536 168.838 C 132.738 162.792 136.898 153.87 136.898 144.466 L 136.898 141.876 L 125.536 141.876 Z " fill="rgb(57,64,73)"/><path d=" M 234.464 141.876 L 234.464 168.838 L 234.464 168.838 C 227.262 162.792 223.102 153.87 223.102 144.466 L 223.102 141.876 L 234.464 141.876 Z " fill="rgb(57,64,73)"/></g><g><path d=" M 196.631 100 L 163.369 100 C 142.474 100 125.536 116.938 125.536 137.833 L 125.536 144.909 L 234.464 144.909 L 234.464 137.833 C 234.464 116.939 217.526 100 196.631 100 Z " fill="rgb(77,177,224)"/><path d=" M 204.134 136.092 L 155.866 136.092 L 155.866 124.022 C 155.866 119.134 159.829 115.171 164.717 115.171 L 195.283 115.171 C 200.171 115.171 204.134 119.134 204.134 124.022 L 204.134 136.092 L 204.134 136.092 Z " fill="rgb(255,255,255)"/><path d=" M 187.377 128.084 L 172.624 128.084 C 171.269 128.084 170.172 126.986 170.172 125.632 C 170.172 124.278 171.269 123.18 172.624 123.18 L 187.377 123.18 C 188.731 123.18 189.828 124.278 189.828 125.632 C 189.828 126.986 188.731 128.084 187.377 128.084 Z " fill="rgb(236,128,135)"/><g opacity="0.4"><path d=" M 215.624 136.092 L 144.376 136.092 C 142.543 136.092 141.057 137.579 141.057 139.412 L 141.057 141.589 C 141.057 143.422 142.543 144.909 144.376 144.909 L 215.624 144.909 C 217.457 144.909 218.943 143.422 218.943 141.589 L 218.943 139.412 C 218.943 137.579 217.457 136.092 215.624 136.092 Z " fill="rgb(255,255,255)"/></g></g><g><path d=" M 155.518 186.116 L 143.852 186.116 C 142.497 186.116 141.4 185.018 141.4 183.664 C 141.4 182.31 142.497 181.212 143.852 181.212 L 155.518 181.212 C 156.872 181.212 157.969 182.31 157.969 183.664 C 157.969 185.018 156.872 186.116 155.518 186.116 Z " fill="rgb(236,128,135)"/><path d=" M 216.147 186.116 L 204.481 186.116 C 203.127 186.116 202.029 185.018 202.029 183.664 C 202.029 182.31 203.127 181.212 204.481 181.212 L 216.147 181.212 C 217.501 181.212 218.599 182.31 218.599 183.664 C 218.599 185.018 217.501 186.116 216.147 186.116 Z " fill="rgb(236,128,135)"/><path d=" M 179.999 186.972 C 176.779 186.972 173.705 185.42 171.777 182.822 C 170.97 181.734 171.198 180.198 172.285 179.392 C 173.373 178.585 174.908 178.813 175.715 179.9 C 176.737 181.278 178.299 182.068 179.999 182.068 C 181.7 182.068 183.261 181.278 184.283 179.9 C 185.09 178.813 186.625 178.585 187.713 179.392 C 188.801 180.199 189.028 181.734 188.222 182.822 C 186.294 185.42 183.22 186.972 179.999 186.972 Z " fill="rgb(57,64,73)"/></g><g><path d=" M 210.284 141.253 L 150.03 141.253 C 140.393 141.253 132.354 149.139 132.546 158.775 C 132.733 168.097 140.348 175.596 149.715 175.596 C 157.132 175.596 163.451 170.893 165.852 164.307 C 167.141 160.773 170.505 158.424 174.267 158.424 L 185.781 158.424 C 189.551 158.424 192.862 160.819 194.164 164.357 C 196.711 171.274 203.583 176.1 211.501 175.554 C 220.074 174.963 226.822 168.215 227.414 159.642 C 228.105 149.607 220.17 141.253 210.284 141.253 Z " fill="rgb(77,177,224)"/><g opacity="0.2"><path d=" M 171.398 141.253 L 140.041 172.61 C 142.796 174.492 146.126 175.596 149.715 175.596 C 157.132 175.596 163.451 170.893 165.853 164.307 C 167.141 160.773 170.505 158.424 174.267 158.424 L 177.211 158.424 L 194.383 141.253 L 171.398 141.253 L 171.398 141.253 Z " fill="rgb(255,255,255)"/></g><g opacity="0.2"><path d=" M 222.237 146.097 L 197.958 170.376 C 201.339 173.862 206.183 175.921 211.501 175.554 C 220.074 174.963 226.822 168.215 227.414 159.642 C 227.78 154.323 225.723 149.478 222.237 146.097 Z " fill="rgb(255,255,255)"/></g><path d=" M 149.715 178.048 C 144.543 178.048 139.662 176.053 135.971 172.431 C 132.285 168.814 130.198 163.981 130.095 158.823 C 129.991 153.598 131.981 148.63 135.699 144.838 C 139.46 141.001 144.683 138.801 150.03 138.801 L 210.284 138.801 C 215.703 138.801 220.933 141.074 224.632 145.036 C 228.383 149.055 230.24 154.302 229.86 159.81 C 229.18 169.67 221.531 177.32 211.67 178 C 203.006 178.59 194.857 173.335 191.864 165.203 C 190.911 162.615 188.466 160.876 185.781 160.876 L 174.267 160.876 C 171.543 160.876 169.088 162.592 168.156 165.146 C 165.342 172.863 157.932 178.048 149.715 178.048 Z  M 174.267 155.973 L 185.781 155.973 C 190.511 155.973 194.805 159.002 196.465 163.51 C 198.746 169.706 204.712 173.565 211.333 173.108 C 218.724 172.598 224.458 166.864 224.968 159.473 C 225.253 155.336 223.86 151.397 221.047 148.383 C 218.231 145.366 214.408 143.704 210.284 143.704 L 150.03 143.704 C 145.992 143.704 142.045 145.368 139.201 148.27 C 136.413 151.115 134.92 154.828 134.998 158.725 C 135.157 166.676 141.759 173.144 149.715 173.144 C 155.879 173.144 161.439 169.255 163.549 163.466 C 165.184 158.984 169.491 155.973 174.267 155.973 Z " fill="rgb(57,64,73)"/></g></g></g></g></svg>