<?xml version="1.0" encoding="UTF-8" standalone="no"?><!-- Generator: Gravit.io --><svg xmlns="http://www.w3.org/2000/svg" xmlns:xlink="http://www.w3.org/1999/xlink" style="isolation:isolate" viewBox="0 0 360 360" width="360pt" height="360pt"><defs><clipPath id="_clipPath_MXwxRX1vfcbvz08vMpzewUZigB9GJA2l"><rect width="360" height="360"/></clipPath></defs><g clip-path="url(#_clipPath_MXwxRX1vfcbvz08vMpzewUZigB9GJA2l)"><rect width="360" height="360" style="fill:rgb(0,0,0)" fill-opacity="0"/><g><path d="M 180 20 L 180 20 C 268.306 20 340 91.694 340 180 L 340 180 C 340 268.306 268.306 340 180 340 L 180 340 C 91.694 340 20 268.306 20 180 L 20 180 C 20 91.694 91.694 20 180 20 Z" style="stroke:none;fill:#00CEC9;stroke-miterlimit:10;"/><path d=" M 140.262 176.178 C 140.262 181.502 135.947 185.818 130.623 185.818 C 125.299 185.818 120.983 181.502 120.983 176.178 L 120.983 170.487 C 120.983 165.163 125.299 160.847 130.623 160.847 C 135.947 160.847 140.262 165.163 140.262 170.487 L 140.262 176.178 Z " fill="rgb(242,190,137)"/><g opacity="0.15"><path d=" M 140.262 176.178 C 140.262 181.502 135.947 185.818 130.623 185.818 C 125.299 185.818 120.983 181.502 120.983 176.178 L 120.983 170.487 C 120.983 165.163 125.299 160.847 130.623 160.847 C 135.947 160.847 140.262 165.163 140.262 170.487 L 140.262 176.178 Z " fill="rgb(236,128,135)"/></g><g opacity="0.1"><path d=" M 130.623 160.847 C 129.552 160.847 128.523 161.024 127.561 161.347 C 127.49 162.432 127.45 163.527 127.45 164.631 L 127.45 179.908 C 127.45 181.759 127.555 183.586 127.753 185.384 C 128.66 185.666 129.624 185.818 130.623 185.818 C 135.947 185.818 140.263 181.502 140.263 176.179 L 140.263 170.487 C 140.262 165.163 135.947 160.847 130.623 160.847 Z " fill="rgb(0,0,0)"/></g><path d=" M 219.738 176.178 C 219.738 181.502 224.053 185.818 229.377 185.818 C 234.701 185.818 239.017 181.502 239.017 176.178 L 239.017 170.487 C 239.017 165.163 234.701 160.847 229.377 160.847 C 224.053 160.847 219.738 165.163 219.738 170.487 L 219.738 176.178 L 219.738 176.178 Z " fill="rgb(242,190,137)"/><g opacity="0.15"><path d=" M 219.738 176.178 C 219.738 181.502 224.053 185.818 229.377 185.818 C 234.701 185.818 239.017 181.502 239.017 176.178 L 239.017 170.487 C 239.017 165.163 234.701 160.847 229.377 160.847 C 224.053 160.847 219.738 165.163 219.738 170.487 L 219.738 176.178 L 219.738 176.178 Z " fill="rgb(236,128,135)"/></g><g opacity="0.1"><path d=" M 229.377 160.847 C 230.448 160.847 231.477 161.024 232.439 161.347 C 232.51 162.432 232.551 163.527 232.551 164.631 L 232.551 179.908 C 232.551 181.759 232.445 183.586 232.247 185.384 C 231.34 185.666 230.377 185.818 229.377 185.818 C 224.053 185.818 219.738 181.502 219.738 176.179 L 219.738 170.487 C 219.738 165.163 224.053 160.847 229.377 160.847 Z " fill="rgb(0,0,0)"/></g><path d=" M 142.498 225.01 C 120.731 228.49 117.651 247.956 117.341 256.253 C 117.264 258.302 118.908 260 120.957 260 L 142.498 260 L 142.498 225.01 Z " fill="rgb(57,64,73)"/><g opacity="0.3"><path d=" M 139.227 225.691 C 130.235 234.492 124.468 246.573 123.864 260 L 142.498 260 L 142.498 225.01 C 141.355 225.193 140.269 225.423 139.227 225.691 Z " fill="rgb(0,0,0)"/></g><path d=" M 217.502 225.01 C 239.269 228.49 242.349 247.956 242.659 256.253 C 242.736 258.301 241.092 260 239.043 260 L 217.502 260 L 217.502 225.01 Z " fill="rgb(57,64,73)"/><g opacity="0.3"><path d=" M 220.773 225.691 C 229.765 234.492 235.532 246.573 236.136 260 L 217.502 260 L 217.502 225.01 C 218.645 225.193 219.731 225.423 220.773 225.691 Z " fill="rgb(0,0,0)"/></g><path d=" M 231.294 260 C 231.294 231.671 208.329 208.706 180 208.706 C 151.671 208.706 128.706 231.671 128.706 260 L 231.294 260 Z " fill="rgb(57,64,73)"/><path d=" M 206.665 201.238 L 214.385 201.238 C 223.128 201.238 230.631 207.467 232.239 216.062 L 232.239 216.062 C 233.709 223.922 229.883 231.822 222.804 235.542 L 187.022 254.347 C 182.626 256.657 177.374 256.657 172.978 254.347 L 137.195 235.542 C 130.117 231.822 126.291 223.922 127.761 216.062 L 127.761 216.062 C 129.368 207.468 136.871 201.238 145.615 201.238 L 153.334 201.238 L 206.665 201.238 L 206.665 201.238 Z " fill="rgb(76,224,222)"/><path d=" M 216.885 211.635 L 182.606 249.278 C 181.207 250.814 178.791 250.814 177.392 249.278 L 143.113 211.635 L 216.885 211.635 Z " fill="rgb(242,190,137)"/><g opacity="0.1"><path d=" M 143.113 211.635 L 160.466 230.691 C 166.458 233.275 173.061 234.709 180 234.709 L 180 234.709 C 186.938 234.709 193.54 233.275 199.53 230.692 L 216.885 211.635 L 143.113 211.635 Z " fill="rgb(0,0,0)"/></g><path d=" M 180 115.254 L 180 115.254 C 152.73 115.254 130.623 137.361 130.623 164.631 L 130.623 179.907 C 130.623 207.178 152.73 229.285 180 229.285 L 180 229.285 C 207.27 229.285 229.377 207.178 229.377 179.907 L 229.377 164.631 C 229.377 137.361 207.27 115.254 180 115.254 Z " fill="rgb(242,190,137)"/><path d=" M 229.377 146.792 C 229.377 134.563 222.02 123.535 210.728 118.839 L 210.728 118.839 C 203.164 115.693 196.082 111.495 189.693 106.368 L 183.126 101.099 C 181.3 99.634 178.701 99.634 176.874 101.099 L 170.307 106.368 C 163.918 111.495 156.836 115.693 149.272 118.839 L 149.272 118.839 C 137.98 123.535 130.623 134.563 130.623 146.792 L 130.623 179.907 C 130.623 207.178 152.73 229.285 180 229.285 L 180 229.285 C 207.27 229.285 229.377 207.178 229.377 179.907 L 229.377 146.792 Z  M 221.238 185.472 C 219.845 192.057 216.911 198.219 212.676 203.451 L 212.675 203.452 C 209.985 206.775 205.937 208.706 201.661 208.706 L 189.043 208.706 C 188.019 208.706 187.067 208.179 186.525 207.311 L 185.847 206.227 C 185.482 205.642 184.841 205.286 184.151 205.286 L 175.849 205.286 C 175.159 205.286 174.518 205.642 174.153 206.227 L 173.475 207.311 C 172.933 208.179 171.981 208.706 170.958 208.706 L 158.34 208.706 C 154.063 208.706 150.015 206.775 147.324 203.451 L 147.324 203.451 C 143.089 198.219 140.155 192.057 138.762 185.472 L 137.311 178.607 C 136.188 173.3 136.371 167.8 137.842 162.579 L 140.116 154.507 C 140.298 153.861 140.517 153.227 140.754 152.601 C 148.183 148.72 154.388 142.875 158.707 135.727 C 159.845 133.844 164.155 132.612 164.211 132.612 L 195.789 132.612 C 195.844 132.612 195.9 132.612 195.956 132.612 C 198.128 132.635 200.129 133.793 201.249 135.655 C 205.57 142.836 211.792 148.707 219.245 152.601 C 219.483 153.227 219.702 153.861 219.884 154.507 L 222.158 162.579 C 223.629 167.8 223.811 173.3 222.689 178.607 L 221.238 185.472 Z " fill="rgb(57,64,73)"/><path d=" M 155.137 181.223 L 146.488 181.223 C 145.193 181.223 144.144 180.174 144.144 178.88 C 144.144 177.585 145.193 176.536 146.488 176.536 L 155.137 176.536 C 156.432 176.536 157.481 177.585 157.481 178.88 C 157.481 180.174 156.432 181.223 155.137 181.223 Z " fill="rgb(227,101,102)"/><path d=" M 213.512 181.223 L 204.863 181.223 C 203.568 181.223 202.519 180.174 202.519 178.88 C 202.519 177.585 203.568 176.536 204.863 176.536 L 213.512 176.536 C 214.806 176.536 215.855 177.585 215.855 178.88 C 215.855 180.174 214.806 181.223 213.512 181.223 Z " fill="rgb(227,101,102)"/><path d=" M 180 181.308 C 177.291 181.308 174.706 180.003 173.084 177.818 C 172.313 176.779 172.531 175.311 173.57 174.54 C 174.61 173.769 176.078 173.986 176.849 175.026 C 177.601 176.039 178.75 176.621 180 176.621 C 181.25 176.621 182.399 176.04 183.151 175.026 C 183.922 173.986 185.39 173.768 186.429 174.54 C 187.469 175.311 187.686 176.779 186.915 177.818 C 185.294 180.004 182.709 181.308 180 181.308 Z " fill="rgb(57,64,73)"/><path d=" M 180 239.504 C 175.278 239.504 170.736 238.732 166.493 237.31 L 177.392 249.278 C 178.791 250.814 181.207 250.814 182.606 249.278 L 193.504 237.311 C 189.262 238.732 184.721 239.504 180 239.504 Z " fill="rgb(255,255,255)"/><path d=" M 152.747 254.244 C 151.452 254.244 150.403 253.195 150.403 251.9 L 150.403 240.121 C 150.403 238.826 151.452 237.777 152.747 237.777 C 154.041 237.777 155.09 238.826 155.09 240.121 L 155.09 251.9 C 155.09 253.195 154.041 254.244 152.747 254.244 Z " fill="rgb(255,255,255)"/><path d=" M 207.253 254.244 C 205.959 254.244 204.91 253.195 204.91 251.9 L 204.91 240.121 C 204.91 238.826 205.959 237.777 207.253 237.777 C 208.548 237.777 209.597 238.826 209.597 240.121 L 209.597 251.9 C 209.597 253.195 208.548 254.244 207.253 254.244 Z " fill="rgb(255,255,255)"/><g><path d=" M 173.891 156.833 L 167.065 153.644 L 155.255 153.644 L 148.563 157.771 L 147.875 163.713 L 153.316 173.406 L 160.003 175.783 L 168.576 174.282 L 173.891 167.903 L 174.892 159.682 L 173.891 156.833 Z " fill="rgb(251,225,213)"/><path d=" M 186.108 156.833 L 192.935 153.644 L 204.745 153.644 L 211.437 157.771 L 212.124 163.713 L 206.683 173.406 L 199.996 175.783 L 191.424 174.282 L 186.108 167.903 L 185.107 159.682 L 186.108 156.833 Z " fill="rgb(251,225,213)"/><path d=" M 210.973 155.227 C 208.931 153.784 205.104 152.064 198.469 152.064 C 191.835 152.064 188.008 153.784 185.965 155.227 C 185.045 155.878 184.344 156.773 183.914 157.788 C 182.88 157.184 181.535 156.653 180 156.653 C 178.465 156.653 177.12 157.184 176.086 157.788 C 175.655 156.773 174.954 155.878 174.034 155.227 C 171.992 153.785 168.165 152.065 161.53 152.065 C 154.896 152.065 151.069 153.785 149.026 155.227 C 147.297 156.449 146.333 158.531 146.509 160.661 C 146.731 163.342 147.427 167.248 149.479 170.634 C 152.09 174.943 156.257 177.22 161.53 177.22 C 166.803 177.22 170.971 174.943 173.582 170.634 C 175.491 167.484 176.225 163.885 176.497 161.24 C 177.094 160.712 178.434 159.707 180 159.707 C 181.563 159.707 182.903 160.709 183.503 161.24 C 183.775 163.885 184.509 167.484 186.418 170.634 C 189.029 174.943 193.197 177.22 198.47 177.22 C 203.743 177.22 207.91 174.943 210.521 170.634 C 212.574 167.248 213.269 163.342 213.491 160.662 C 213.667 158.531 212.703 156.449 210.973 155.227 Z  M 170.97 169.052 C 168.913 172.446 165.737 174.167 161.53 174.167 C 157.323 174.167 154.147 172.446 152.09 169.052 C 150.253 166.022 149.711 162.336 149.552 160.409 C 149.464 159.352 149.938 158.322 150.788 157.721 C 152.469 156.533 155.697 155.118 161.53 155.118 C 167.363 155.118 170.591 156.533 172.272 157.721 C 173.122 158.322 173.596 159.352 173.508 160.409 C 173.349 162.336 172.807 166.022 170.97 169.052 Z  M 210.448 160.409 C 210.288 162.336 209.746 166.022 207.91 169.052 C 205.853 172.446 202.677 174.167 198.469 174.167 C 194.262 174.167 191.086 172.446 189.029 169.052 C 187.193 166.022 186.651 162.336 186.491 160.409 C 186.403 159.352 186.877 158.322 187.727 157.721 C 189.408 156.534 192.637 155.118 198.47 155.118 C 204.303 155.118 207.531 156.534 209.212 157.721 C 210.062 158.322 210.535 159.352 210.448 160.409 Z " fill="rgb(58,72,74)"/></g><path d=" M 159.824 169.693 C 158.53 169.693 157.481 168.644 157.481 167.349 L 157.481 160.915 C 157.481 159.62 158.53 158.571 159.824 158.571 C 161.119 158.571 162.168 159.62 162.168 160.915 L 162.168 167.349 C 162.168 168.643 161.119 169.693 159.824 169.693 Z " fill="rgb(57,64,73)"/><path d=" M 200.175 169.693 C 198.881 169.693 197.832 168.644 197.832 167.349 L 197.832 160.915 C 197.832 159.62 198.881 158.571 200.175 158.571 C 201.47 158.571 202.519 159.62 202.519 160.915 L 202.519 167.349 C 202.519 168.643 201.47 169.693 200.175 169.693 Z " fill="rgb(57,64,73)"/></g></g></svg>