<?xml version="1.0" encoding="UTF-8" standalone="no"?><!-- Generator: Gravit.io --><svg xmlns="http://www.w3.org/2000/svg" xmlns:xlink="http://www.w3.org/1999/xlink" style="isolation:isolate" viewBox="0 0 360 360" width="360pt" height="360pt"><defs><clipPath id="_clipPath_c5C0BCqcnWcMyWL4EPSjStnXwptkVqvd"><rect width="360" height="360"/></clipPath></defs><g clip-path="url(#_clipPath_c5C0BCqcnWcMyWL4EPSjStnXwptkVqvd)"><rect width="360" height="360" style="fill:rgb(0,0,0)" fill-opacity="0"/><g><path d="M 180 20 L 180 20 C 268.306 20 340 91.694 340 180 L 340 180 C 340 268.306 268.306 340 180 340 L 180 340 C 91.694 340 20 268.306 20 180 L 20 180 C 20 91.694 91.694 20 180 20 Z" style="stroke:none;fill:#48B081;stroke-miterlimit:10;"/><g><path d=" M 154.787 195.609 L 154.787 229.925 C 154.787 230.764 154.107 231.445 153.267 231.445 L 130.433 231.445 C 129.594 231.445 128.913 230.765 128.913 229.925 L 128.913 138.096 C 128.913 119.314 140.725 113.712 146.493 113.712 C 149.845 105.713 166.961 100 182.018 100 C 206.589 100 232.268 117.152 232.268 146.361 L 232.268 229.926 C 232.268 230.765 231.588 231.445 230.749 231.445 L 207.914 231.445 C 207.075 231.445 206.395 230.765 206.395 229.926 L 206.395 195.609 L 154.787 195.609 Z " fill="rgb(141,106,89)"/><g opacity="0.2"><path d=" M 206.395 203.986 L 232.268 203.986 L 232.268 229.926 C 232.268 230.765 231.588 231.445 230.749 231.445 L 207.914 231.445 C 207.075 231.445 206.395 230.765 206.395 229.926 L 206.395 203.986 L 206.395 203.986 Z " fill="rgb(244,197,61)"/></g><g opacity="0.2"><path d=" M 128.914 203.986 L 154.787 203.986 L 154.787 229.926 C 154.787 230.765 154.107 231.445 153.267 231.445 L 130.433 231.445 C 129.594 231.445 128.913 230.765 128.913 229.926 L 128.914 203.986 L 128.914 203.986 Z " fill="rgb(244,197,61)"/></g><path d=" M 144.069 226.476 C 123.214 229.81 120.263 248.461 119.966 256.41 C 119.892 258.373 121.467 260 123.431 260 L 144.069 260 L 144.069 226.476 L 144.069 226.476 Z " fill="rgb(78,191,140)"/><g opacity="0.08"><path d=" M 140.935 227.128 C 132.32 235.561 126.795 247.135 126.216 260 L 144.069 260 L 144.069 226.476 C 142.974 226.651 141.934 226.872 140.935 227.128 Z " fill="rgb(0,0,0)"/></g><path d=" M 215.931 226.476 C 236.786 229.81 239.737 248.461 240.034 256.41 C 240.108 258.373 238.533 260 236.569 260 L 215.931 260 L 215.931 226.476 Z " fill="rgb(78,191,140)"/><g opacity="0.08"><path d=" M 219.065 227.128 C 227.68 235.561 233.205 247.135 233.784 260 L 215.931 260 L 215.931 226.476 C 217.026 226.651 218.066 226.872 219.065 227.128 Z " fill="rgb(0,0,0)"/></g><path d=" M 229.145 260 C 229.145 232.858 207.142 210.855 180 210.855 C 152.858 210.855 130.855 232.858 130.855 260 L 229.145 260 Z " fill="rgb(78,191,140)"/><g opacity="0.3"><path d=" M 180 210.855 C 168.458 210.855 157.847 214.836 149.461 221.496 C 151.389 223.203 153.698 225.458 155.835 230.569 C 158.731 237.493 160.358 247.381 160.684 260 L 199.316 260 C 199.642 247.381 201.268 237.494 204.165 230.569 C 206.302 225.458 208.611 223.203 210.539 221.496 C 202.153 214.836 191.542 210.855 180 210.855 Z " fill="rgb(255,255,255)"/></g><path d=" M 196.016 213.527 L 163.984 213.527 C 161.621 214.341 159.339 215.332 157.155 216.481 C 161.981 221.308 168.898 231.455 169.605 260 L 190.394 260 C 191.101 231.454 198.019 221.308 202.845 216.481 C 200.66 215.331 198.379 214.341 196.016 213.527 Z " fill="rgb(255,255,255)"/><g opacity="0.1"><path d=" M 180 210.855 C 167.453 210.855 156.006 215.56 147.321 223.299 C 155.541 231.927 167.142 237.304 180 237.304 L 180 237.304 C 192.858 237.304 204.459 231.927 212.679 223.299 C 203.994 215.56 192.547 210.855 180 210.855 Z " fill="rgb(0,0,0)"/></g><path d=" M 141.651 176.58 C 141.651 181.528 137.64 185.54 132.692 185.54 C 127.743 185.54 123.732 181.528 123.732 176.58 L 123.732 172.113 C 123.732 167.165 127.743 163.154 132.692 163.154 C 137.64 163.154 141.651 167.165 141.651 172.113 L 141.651 176.58 Z " fill="rgb(249,215,195)"/><g opacity="0.15"><path d=" M 141.651 176.58 C 141.651 181.528 137.64 185.54 132.692 185.54 C 127.743 185.54 123.732 181.528 123.732 176.58 L 123.732 172.113 C 123.732 167.165 127.743 163.154 132.692 163.154 C 137.64 163.154 141.651 167.165 141.651 172.113 L 141.651 176.58 Z " fill="rgb(236,128,135)"/></g><g opacity="0.1"><path d=" M 132.692 163.154 C 131.714 163.154 130.774 163.312 129.894 163.602 C 129.719 165.253 129.628 166.929 129.628 168.626 L 129.628 183.263 C 129.628 183.849 129.642 184.432 129.664 185.014 C 130.609 185.353 131.629 185.54 132.692 185.54 C 137.64 185.54 141.651 181.528 141.651 176.58 L 141.651 172.113 C 141.651 167.165 137.64 163.154 132.692 163.154 Z " fill="rgb(0,0,0)"/></g><path d=" M 218.349 176.58 C 218.349 181.528 222.36 185.54 227.309 185.54 C 232.257 185.54 236.268 181.528 236.268 176.58 L 236.268 172.113 C 236.268 167.165 232.257 163.154 227.309 163.154 C 222.36 163.154 218.349 167.165 218.349 172.113 L 218.349 176.58 Z " fill="rgb(249,215,195)"/><g opacity="0.15"><path d=" M 218.349 176.58 C 218.349 181.528 222.36 185.54 227.309 185.54 C 232.257 185.54 236.268 181.528 236.268 176.58 L 236.268 172.113 C 236.268 167.165 232.257 163.154 227.309 163.154 C 222.36 163.154 218.349 167.165 218.349 172.113 L 218.349 176.58 Z " fill="rgb(236,128,135)"/></g><g opacity="0.1"><path d=" M 227.309 163.154 C 228.286 163.154 229.226 163.312 230.106 163.602 C 230.281 165.253 230.372 166.929 230.372 168.626 L 230.372 183.263 C 230.372 183.849 230.358 184.432 230.337 185.014 C 229.391 185.353 228.372 185.54 227.309 185.54 C 222.36 185.54 218.349 181.528 218.349 176.58 L 218.349 172.113 C 218.349 167.165 222.36 163.154 227.309 163.154 Z " fill="rgb(0,0,0)"/></g><path d=" M 180 121.318 L 180 121.318 C 153.872 121.318 132.692 142.499 132.692 168.627 L 132.692 183.263 C 132.692 209.391 153.872 230.572 180 230.572 L 180 230.572 C 206.128 230.572 227.309 209.391 227.309 183.263 L 227.309 168.627 C 227.309 142.499 206.128 121.318 180 121.318 Z " fill="rgb(249,215,195)"/><path d=" M 167.885 122.416 C 173.181 120.365 178.939 119.241 184.959 119.241 L 184.959 119.241 C 211.087 119.241 232.268 140.422 232.268 166.549 L 232.268 181.186 C 232.268 187.872 230.881 194.234 228.379 200 L 225.181 200 L 225.181 200 L 225.181 200 L 225.181 156.57 C 225.181 151.021 221.198 146.273 215.733 145.31 L 212.165 144.681 C 200.341 142.595 189.147 137.847 179.431 130.795 L 167.885 122.416 Z " fill="rgb(141,106,89)"/><path d=" M 150.911 178.52 C 149.747 178.52 148.802 177.576 148.802 176.411 L 148.802 169.619 C 148.802 168.453 149.747 167.509 150.911 167.509 C 152.076 167.509 153.021 168.453 153.021 169.619 L 153.021 176.411 C 153.021 177.576 152.076 178.52 150.911 178.52 Z " fill="rgb(57,64,73)"/><path d=" M 209.089 178.52 C 207.924 178.52 206.979 177.576 206.979 176.411 L 206.979 169.619 C 206.979 168.453 207.924 167.509 209.089 167.509 C 210.254 167.509 211.198 168.453 211.198 169.619 L 211.198 176.411 C 211.198 177.576 210.254 178.52 209.089 178.52 Z " fill="rgb(57,64,73)"/><path d=" M 155.478 187.91 L 146.347 187.91 C 145.182 187.91 144.238 186.966 144.238 185.801 C 144.238 184.636 145.182 183.692 146.347 183.692 L 155.478 183.692 C 156.643 183.692 157.587 184.636 157.587 185.801 C 157.587 186.966 156.643 187.91 155.478 187.91 Z " fill="rgb(236,128,135)"/><path d=" M 213.653 187.91 L 204.522 187.91 C 203.357 187.91 202.413 186.966 202.413 185.801 C 202.413 184.636 203.357 183.692 204.522 183.692 L 213.653 183.692 C 214.818 183.692 215.762 184.636 215.762 185.801 C 215.762 186.966 214.818 187.91 213.653 187.91 Z " fill="rgb(236,128,135)"/><path d=" M 180 188 C 177.255 188 174.635 186.678 172.992 184.463 C 172.298 183.528 172.494 182.207 173.429 181.512 C 174.365 180.818 175.686 181.014 176.38 181.95 C 177.244 183.114 178.563 183.782 180 183.782 C 181.437 183.782 182.756 183.114 183.62 181.95 C 184.314 181.014 185.635 180.819 186.571 181.512 C 187.506 182.207 187.702 183.528 187.008 184.463 C 185.365 186.678 182.745 188 180 188 Z " fill="rgb(57,64,73)"/></g></g></g></svg>