<?xml version="1.0" encoding="UTF-8" standalone="no"?><!-- Generator: Gravit.io --><svg xmlns="http://www.w3.org/2000/svg" xmlns:xlink="http://www.w3.org/1999/xlink" style="isolation:isolate" viewBox="0 0 360 360" width="360pt" height="360pt"><defs><clipPath id="_clipPath_jpCblOX0RFkGbr9KmDfbSQvp9BYq2brl"><rect width="360" height="360"/></clipPath></defs><g clip-path="url(#_clipPath_jpCblOX0RFkGbr9KmDfbSQvp9BYq2brl)"><rect width="360" height="360" style="fill:rgb(0,0,0)" fill-opacity="0"/><g><path d="M 180 20 L 180 20 C 268.306 20 340 91.694 340 180 L 340 180 C 340 268.306 268.306 340 180 340 L 180 340 C 91.694 340 20 268.306 20 180 L 20 180 C 20 91.694 91.694 20 180 20 Z" style="stroke:none;fill:#D63031;stroke-miterlimit:10;"/><g><g><path d=" M 140.567 223.209 C 117.68 226.868 114.441 247.336 114.115 256.061 C 114.034 258.214 115.762 260 117.918 260 L 140.567 260 C 140.567 260 140.567 223.209 140.567 223.209 Z " fill="rgb(227,101,102)"/><g opacity="0.1"><path d=" M 137.128 223.924 C 127.673 233.179 121.609 245.882 120.974 260 L 140.567 260 L 140.567 223.209 C 139.366 223.401 138.223 223.643 137.128 223.924 Z " fill="rgb(0,0,0)"/></g><path d=" M 219.433 223.209 C 242.32 226.868 245.559 247.336 245.885 256.061 C 245.966 258.214 244.237 260 242.082 260 L 219.433 260 L 219.433 223.209 L 219.433 223.209 Z " fill="rgb(227,101,102)"/><g opacity="0.1"><path d=" M 222.872 223.924 C 232.327 233.179 238.39 245.881 239.026 260 L 219.433 260 L 219.433 223.209 C 220.634 223.401 221.777 223.643 222.872 223.924 Z " fill="rgb(0,0,0)"/></g><path d=" M 233.934 260 C 233.934 230.213 209.787 206.066 180 206.066 C 150.213 206.066 126.066 230.213 126.066 260 L 233.934 260 Z " fill="rgb(232,232,232)"/><path d=" M 180 233.983 L 154.894 242.729 C 152.315 243.628 149.66 241.585 149.869 238.861 L 151.572 216.593 L 180 233.983 Z " fill="rgb(227,101,102)"/><path d=" M 180 233.983 L 205.106 242.729 C 207.685 243.628 210.34 241.585 210.131 238.861 L 208.428 216.593 L 180 233.983 Z " fill="rgb(227,101,102)"/><g opacity="0.1"><path d=" M 180 206.066 C 165.386 206.066 152.133 211.88 142.42 221.319 C 152.01 232.041 164.396 238.916 173.101 243.936 C 177.372 246.398 182.629 246.398 186.899 243.936 C 195.604 238.916 207.991 232.041 217.581 221.319 C 207.867 211.88 194.614 206.066 180 206.066 Z " fill="rgb(0,0,0)"/></g></g><g><circle vector-effect="non-scaling-stroke" cx="128.0818196545727" cy="167.22543547517438" r="12.486458584125188" fill="rgb(246,205,181)"/><g opacity="0.15"><circle vector-effect="non-scaling-stroke" cx="128.0818196545727" cy="167.22543547517438" r="12.486458584125188" fill="rgb(236,128,135)"/></g><g opacity="0.1"><path d=" M 128.081 154.739 C 126.655 154.739 125.286 154.981 124.01 155.422 C 123.893 156.84 123.831 158.273 123.831 159.721 L 123.831 175.784 C 123.831 176.866 123.868 177.939 123.933 179.004 C 125.231 179.461 126.626 179.712 128.081 179.712 C 134.977 179.712 140.567 174.122 140.567 167.226 C 140.567 160.329 134.977 154.739 128.081 154.739 Z " fill="rgb(0,0,0)"/></g><circle vector-effect="non-scaling-stroke" cx="231.91820156002458" cy="167.22543547517438" r="12.486458584125188" fill="rgb(246,205,181)"/><g opacity="0.15"><circle vector-effect="non-scaling-stroke" cx="231.91820156002458" cy="167.22543547517438" r="12.486458584125188" fill="rgb(236,128,135)"/></g><g opacity="0.1"><path d=" M 231.919 154.739 C 233.345 154.739 234.714 154.981 235.99 155.422 C 236.107 156.84 236.169 158.273 236.169 159.721 L 236.169 175.784 C 236.169 176.866 236.132 177.939 236.067 179.004 C 234.769 179.461 233.374 179.712 231.919 179.712 C 225.023 179.712 219.433 174.122 219.433 167.226 C 219.433 160.329 225.023 154.739 231.919 154.739 Z " fill="rgb(0,0,0)"/></g></g><g><path d=" M 180 111.231 L 180 111.231 C 151.326 111.231 128.081 131.047 128.081 159.721 L 128.081 175.784 C 128.081 204.458 151.326 227.703 180 227.703 L 180 227.703 C 208.674 227.703 231.919 204.458 231.919 175.784 L 231.919 159.721 C 231.919 131.047 208.674 111.231 180 111.231 Z " fill="rgb(246,205,181)"/><path d=" M 144.763 167.214 C 143.559 167.214 142.584 166.238 142.584 165.034 L 142.584 157.267 C 142.584 156.063 143.559 155.088 144.763 155.088 C 145.967 155.088 146.942 156.063 146.942 157.267 L 146.942 165.034 C 146.942 166.238 145.967 167.214 144.763 167.214 Z " fill="rgb(57,64,73)"/><path d=" M 215.237 167.214 C 214.033 167.214 213.058 166.238 213.058 165.034 L 213.058 157.267 C 213.058 156.063 214.033 155.088 215.237 155.088 C 216.441 155.088 217.416 156.063 217.416 157.267 L 217.416 165.034 C 217.416 166.238 216.441 167.214 215.237 167.214 Z " fill="rgb(57,64,73)"/></g><path d=" M 231.919 172.991 C 223.378 171.634 213.874 169.062 180 169.062 C 146.126 169.062 136.622 171.634 128.081 172.991 C 126.349 210.088 156.458 226.46 173.101 236.057 C 177.372 238.519 182.628 238.519 186.899 236.057 C 203.542 226.46 233.651 210.088 231.919 172.991 Z " fill="rgb(227,101,102)"/><g><path d=" M 180 184.597 C 177.482 184.597 175.08 183.385 173.573 181.354 C 172.856 180.388 173.059 179.023 174.025 178.306 C 174.992 177.589 176.357 177.791 177.074 178.758 C 177.772 179.699 178.839 180.239 180 180.239 C 181.161 180.239 182.228 179.699 182.926 178.758 C 183.643 177.792 185.008 177.589 185.975 178.306 C 186.941 179.023 187.144 180.388 186.427 181.354 C 184.92 183.385 182.518 184.597 180 184.597 Z " fill="rgb(57,64,73)"/><path d=" M 220.291 183.417 L 210.573 183.417 C 209.369 183.417 208.394 182.441 208.394 181.237 C 208.394 180.034 209.369 179.058 210.573 179.058 L 220.291 179.058 C 221.494 179.058 222.47 180.034 222.47 181.237 C 222.47 182.441 221.494 183.417 220.291 183.417 Z " fill="rgb(255,255,255)"/><path d=" M 149.427 183.417 L 139.709 183.417 C 138.506 183.417 137.53 182.441 137.53 181.237 C 137.53 180.034 138.506 179.058 139.709 179.058 L 149.427 179.058 C 150.631 179.058 151.606 180.034 151.606 181.237 C 151.606 182.441 150.631 183.417 149.427 183.417 Z " fill="rgb(255,255,255)"/></g><g><path d=" M 180.247 109.63 C 154.327 109.63 132.804 128.441 128.576 153.155 C 139.252 151.849 156.924 140.044 156.924 129.57 L 203.571 129.57 C 203.571 140.044 221.243 151.849 231.919 153.155 C 227.691 128.441 206.168 109.63 180.247 109.63 Z " fill="rgb(227,101,102)"/><path d=" M 151.075 121.264 C 145.458 126.996 148.202 136.644 156.01 138.494 C 179.22 143.991 221.556 147.285 221.556 119.409 C 221.556 88.728 173.565 98.314 151.075 121.264 Z " fill="rgb(227,101,102)"/><g opacity="0.25"><path d=" M 151.075 121.264 C 145.458 126.996 148.202 136.644 156.01 138.494 C 179.22 143.991 221.556 147.285 221.556 119.409 C 221.556 88.728 173.565 98.314 151.075 121.264 Z " fill="rgb(255,255,255)"/></g></g></g></g></g></svg>