<?xml version="1.0" encoding="UTF-8" standalone="no"?><!-- Generator: Gravit.io --><svg xmlns="http://www.w3.org/2000/svg" xmlns:xlink="http://www.w3.org/1999/xlink" style="isolation:isolate" viewBox="0 0 720 720" width="720pt" height="720pt"><defs><clipPath id="_clipPath_FE7vxKofccahAAGuV3rldsGs3j76vYNv"><rect width="720" height="720"/></clipPath></defs><g clip-path="url(#_clipPath_FE7vxKofccahAAGuV3rldsGs3j76vYNv)"><rect width="720" height="720" style="fill:rgb(0,0,0)" fill-opacity="0"/><circle vector-effect="non-scaling-stroke" cx="360" cy="360" r="360" fill="rgb(108,215,224)"/><g><path d="M 449.441 380.505 L 401.385 428.561 C 393.808 436.137 383.184 437.816 377.674 432.306 L 377.674 432.306 C 372.164 426.796 373.843 416.172 381.419 408.595 L 429.475 360.539 C 437.052 352.963 447.676 351.284 453.186 356.794 L 453.186 356.794 C 458.696 362.304 457.017 372.928 449.441 380.505 Z" style="stroke:none;fill:#FAFAFA;stroke-miterlimit:10;"/><path d="M 449.441 347.165 L 401.385 299.109 C 393.808 291.533 383.184 289.854 377.674 295.364 L 377.674 295.364 C 372.164 300.874 373.843 311.498 381.419 319.075 L 429.475 367.131 C 437.052 374.707 447.676 376.386 453.186 370.876 L 453.186 370.876 C 458.696 365.366 457.017 354.742 449.441 347.165 Z" style="stroke:none;fill:#FAFAFA;stroke-miterlimit:10;"/><path d=" M 351.702 302.625 L 353.444 303.631 C 359.711 307.249 361.861 315.275 358.243 321.542 L 298.288 425.387 C 294.67 431.654 286.644 433.804 280.377 430.186 L 278.635 429.18 C 272.368 425.562 270.218 417.536 273.836 411.269 L 333.791 307.424 C 337.409 301.157 345.435 299.007 351.702 302.625 Z " fill="rgb(250,250,250)"/><path d="M 276.944 327.526 L 320.353 352.59 C 328.617 357.362 332.164 366.714 328.268 373.462 L 328.268 373.462 C 324.372 380.211 314.5 381.815 306.236 377.044 L 262.827 351.98 C 254.563 347.208 251.016 337.856 254.912 331.108 L 254.912 331.108 C 258.808 324.359 268.68 322.755 276.944 327.526 Z" style="stroke:none;fill:#FAFAFA;stroke-miterlimit:10;"/><path d="M 302.431 277.042 L 302.431 277.042 C 309.179 280.937 311.494 289.579 307.598 296.326 L 279.364 345.231 C 275.468 351.979 266.827 354.294 260.079 350.398 L 260.079 350.398 C 253.331 346.503 251.016 337.861 254.912 331.114 L 283.146 282.209 C 287.042 275.461 295.683 273.146 302.431 277.042 Z" style="stroke:none;fill:#FAFAFA;stroke-miterlimit:10;"/><path d=" M 388.524 131.807 L 588.193 331.476 C 603.936 347.219 603.936 372.781 588.193 388.524 L 388.524 588.193 C 372.781 603.936 347.219 603.936 331.476 588.193 L 131.807 388.524 C 116.064 372.781 116.064 347.219 131.807 331.476 L 331.476 131.807 C 347.219 116.064 372.781 116.064 388.524 131.807 Z  M 388.698 189.03 L 530.97 331.301 C 546.809 347.141 546.809 372.859 530.97 388.698 L 388.698 530.97 C 372.859 546.809 347.141 546.809 331.301 530.97 L 189.03 388.698 C 173.191 372.859 173.191 347.141 189.03 331.301 L 331.301 189.03 C 347.141 173.191 372.859 173.191 388.698 189.03 Z " fill-rule="evenodd" fill="rgb(250,250,250)"/></g></g></svg>